<svg xmlns="http://www.w3.org/2000/svg" width="50" height="50" viewBox="0 0 50 50">
  <path fill="#fff" d="M0 0h6v6H0Z"/>
  <path fill="#fff" d="M10 0h6v6h-6Z"/>
  <path fill="#fff" d="M20 0h6v6h-6Z"/>
  <path fill="#fff" d="M30 0h6v6h-6Z"/>
  <path fill="#fff" d="M40 0h6v6h-6Z"/>
  <path fill="#fff" d="M5 8h6v6H5Z"/>
  <path fill="#fff" d="M15 8h6v6h-6Z"/>
  <path fill="#fff" d="M25 8h6v6h-6Z"/>
  <path fill="#fff" d="M35 8h6v6h-6Z"/>
  <path fill="#fff" d="M45 8h6v6h-6Z"/>
  <path fill="#fff" d="M0 17h6v6H0Z"/>
  <path fill="#fff" d="M10 17h6v6h-6Z"/>
  <path fill="#fff" d="M20 17h6v6h-6Z"/>
  <path fill="#fff" d="M30 17h6v6h-6Z"/>
  <path fill="#fff" d="M40 17h6v6h-6Z"/>
  <path fill="#fff" d="M5 26h6v6H5Z"/>
  <path fill="#fff" d="M15 26h6v6h-6Z"/>
  <path fill="#fff" d="M25 26h6v6h-6Z"/>
  <path fill="#fff" d="M35 26h6v6h-6Z"/>
  <path fill="#fff" d="M45 26h6v6h-6Z"/>
  <path fill="#fff" d="M0 35h6v6H0Z"/>
  <path fill="#fff" d="M10 35h6v6h-6Z"/>
  <path fill="#fff" d="M20 35h6v6h-6Z"/>
  <path fill="#fff" d="M30 35h6v6h-6Z"/>
  <path fill="#fff" d="M40 35h6v6h-6Z"/>
  <path fill="#fff" d="M5 44h6v6H5Z"/>
  <path fill="#fff" d="M15 44h6v6h-6Z"/>
  <path fill="#fff" d="M25 44h6v6h-6Z"/>
  <path fill="#fff" d="M35 44h6v6h-6Z"/>
  <path fill="#fff" d="M45 44h6v6h-6Z"/>
</svg>
