<svg xmlns="http://www.w3.org/2000/svg" width="50" height="50" viewBox="0 0 50 50">
  <path fill="#fff" d="M1 1h10v10H1Z"/>
  <path fill="#fff" d="M13 1h10v10H13Z"/>
  <path fill="#fff" d="M25 1h10v10H25Z"/>
  <path fill="#fff" d="M37 1h10v10H37Z"/>
  <path fill="#fff" d="M1 13h10v10H1Z"/>
  <path fill="#fff" d="M13 13h10v10H13Z"/>
  <path fill="#fff" d="M25 13h10v10H25Z"/>
  <path fill="#fff" d="M37 13h10v10H37Z"/>
  <path fill="#fff" d="M1 25h10v10H1Z"/>
  <path fill="#fff" d="M13 25h10v10H13Z"/>
  <path fill="#fff" d="M25 25h10v10H25Z"/>
  <path fill="#fff" d="M37 25h10v10H37Z"/>
  <path fill="#fff" d="M1 37h10v10H1Z"/>
  <path fill="#fff" d="M13 37h10v10H13Z"/>
  <path fill="#fff" d="M25 37h10v10H25Z"/>
  <path fill="#fff" d="M37 37h10v10H37Z"/>
</svg>
