<svg xmlns="http://www.w3.org/2000/svg" width="50" height="50" viewBox="0 0 50 50">
  <circle cx="5" cy="4" r="1.8" fill="#fff"/>
  <circle cx="22" cy="7" r="1.5" fill="#fff"/>
  <circle cx="40" cy="3" r="2" fill="#fff"/>
  <circle cx="14" cy="16" r="1.8" fill="#fff"/>
  <circle cx="35" cy="14" r="1.5" fill="#fff"/>
  <circle cx="47" cy="18" r="1.8" fill="#fff"/>
  <circle cx="6" cy="26" r="2" fill="#fff"/>
  <circle cx="28" cy="24" r="1.5" fill="#fff"/>
  <circle cx="44" cy="29" r="1.8" fill="#fff"/>
  <circle cx="10" cy="37" r="1.5" fill="#fff"/>
  <circle cx="32" cy="35" r="2" fill="#fff"/>
  <circle cx="18" cy="43" r="1.8" fill="#fff"/>
  <circle cx="38" cy="46" r="1.5" fill="#fff"/>
  <circle cx="48" cy="42" r="1.8" fill="#fff"/>
  <circle cx="26" cy="48" r="1.5" fill="#fff"/>
  <circle cx="3" cy="46" r="1.5" fill="#fff"/>
  <circle cx="46" cy="8" r="1.5" fill="#fff"/>
  <circle cx="12" cy="7" r="1.2" fill="#fff"/>
  <circle cx="34" cy="5" r="1.2" fill="#fff"/>
  <circle cx="24" cy="14" r="1.2" fill="#fff"/>
  <circle cx="42" cy="22" r="1.2" fill="#fff"/>
  <circle cx="16" cy="26" r="1.2" fill="#fff"/>
  <circle cx="38" cy="28" r="1.2" fill="#fff"/>
  <circle cx="4" cy="34" r="1.2" fill="#fff"/>
  <circle cx="22" cy="38" r="1.2" fill="#fff"/>
  <circle cx="45" cy="37" r="1.2" fill="#fff"/>
  <circle cx="8" cy="48" r="1.2" fill="#fff"/>
  <circle cx="35" cy="47" r="1.2" fill="#fff"/>
  <circle cx="48" cy="48" r="1.2" fill="#fff"/>
  <circle cx="4" cy="16" r="1" fill="#fff"/>
  <circle cx="30" cy="10" r="1" fill="#fff"/>
  <circle cx="10" cy="48" r="1" fill="#fff"/>
  <circle cx="44" cy="48" r="1" fill="#fff"/>
  <circle cx="48" cy="30" r="1" fill="#fff"/>
  <circle cx="3" cy="46" r="1" fill="#fff"/>
  <circle cx="20" cy="46" r="1" fill="#fff"/>
  <circle cx="38" cy="38" r="1" fill="#fff"/>
</svg>
