<svg xmlns="http://www.w3.org/2000/svg" width="50" height="50" viewBox="0 0 50 50">
  <path fill="#fff" d="M18 50c1-3 2-6 2-9s-1-4-1-6 1-2 1-3c0-2-1-5-2-7s-1-4 0-7l1-3c1-2 1-4 0-6l-3 1c-1 2-1 4 0 6s1 4 1 6-1 5-2 7-1 5 0 8 0 5-1 7-2 5-3 8l3 3Z"/>
  <path fill="#fff" d="M36 49c0-3 1-6 1-8s-1-4-1-6 1-3 2-5 1-4 0-7l-1-3c-1-2-2-4-1-6l3 1c1 2 1 4 0 6s-1 4-1 6 1 5 2 7 1 5 0 7-1 5-2 8l-2 3Z"/>
  <path fill="#fff" d="M28 50c1-4 1-7 0-10s-2-5-2-8 0-4 1-6 1-4 0-7l-1-4c0-2 0-4 1-6l3 1c1 2 1 4 0 6s-1 4-1 6 1 5 2 8 1 6 0 8-1 5-2 8l-1 4Z"/>
  <path fill="#fff" d="M8 46c1-3 1-5 0-8s-1-5-1-7 1-3 2-4c1-2 1-4 0-7l-1-3c0-2 0-4 1-6l3 1c1 2 1 4 0 6s-1 4-1 6 1 4 2 6 1 5 0 7-2 5-3 8l-2 3Z"/>
  <path fill="#fff" d="M44 48c0-3 1-6 1-8s-1-4-2-6-1-4 0-7l1-3c1-2 1-4 0-6l3 1c1 2 0 4-1 6s-1 4-1 6 1 4 2 6 0 5-1 7-1 5-2 8l-2 3Z"/>
  <path fill="#fff" d="M13 49c0-4-1-7-1-10s1-4 1-6-1-4-2-6-1-5 0-7l1-3c0-2 0-5 1-7l3 1c1 2 0 4-1 6s-1 4-1 6 1 4 2 7 0 5-1 7-1 5-2 8l-1 4Z"/>
  <path fill="#fff" d="M24 50c0-3-1-6-1-9s0-5 1-7 1-4 2-5c1-2 1-4 0-7l-1-3c0-2-1-4 0-6l3 1c1 2 1 4 0 6s-1 4-1 6 1 4 2 7 0 5-1 7-1 5-2 8l-2 3Z"/>
  <path fill="#fff" d="M40 50c0-4-1-7-1-10s1-4 1-6-1-4-1-6 0-5 1-7l1-3c0-2 0-5-1-7l3 1c1 2 0 4-1 6s-1 4-1 6 1 4 2 7 1 5 0 7-1 5-2 8l-1 4Z"/>
  <path fill="#fff" d="M6 48c0-4-1-7-1-10s1-4 1-6-1-4-1-6 0-5 1-7l1-3c0-2 0-5-1-7l3 1c1 2 0 4-1 6s-1 4-1 6 1 4 2 7 1 5 0 7-1 5-2 8l-1 4Z"/>
  <path fill="#fff" d="M46 47c0-4-1-7-1-10s1-4 1-6-1-4-2-6-1-5 0-7l1-3c0-2-1-5-2-7l3 1c1 2 1 4 0 6s-1 4-1 6 1 4 2 7 0 5-1 7-1 5-2 8l-1 4Z"/>
  <path fill="#fff" d="M32 50c-1-4-1-7-2-10s0-5 1-7 1-4 2-5c1-2 1-4 0-7l-1-3c-1-2-1-4 0-6l3 1c1 2 1 4 0 6s-1 4-1 6 1 4 2 7 0 5-1 7-2 5-3 8l-1 4Z"/>
</svg>
