<svg xmlns="http://www.w3.org/2000/svg" width="50" height="50" viewBox="0 0 50 50">
  <circle cx="7" cy="5" r="1.5" fill="#fff"/>
  <circle cx="18" cy="3" r="1" fill="#fff"/>
  <circle cx="32" cy="6" r="1.5" fill="#fff"/>
  <circle cx="44" cy="4" r="1" fill="#fff"/>
  <circle cx="12" cy="12" r="1" fill="#fff"/>
  <circle cx="25" cy="10" r="1.5" fill="#fff"/>
  <circle cx="38" cy="13" r="1" fill="#fff"/>
  <circle cx="5" cy="19" r="1.5" fill="#fff"/>
  <circle cx="15" cy="22" r="1" fill="#fff"/>
  <circle cx="28" cy="20" r="1.5" fill="#fff"/>
  <circle cx="42" cy="18" r="1" fill="#fff"/>
  <circle cx="8" cy="28" r="1" fill="#fff"/>
  <circle cx="20" cy="30" r="1.5" fill="#fff"/>
  <circle cx="35" cy="27" r="1" fill="#fff"/>
  <circle cx="47" cy="29" r="1.5" fill="#fff"/>
  <circle cx="3" cy="37" r="1.5" fill="#fff"/>
  <circle cx="16" cy="39" r="1" fill="#fff"/>
  <circle cx="30" cy="36" r="1.5" fill="#fff"/>
  <circle cx="42" cy="38" r="1" fill="#fff"/>
  <circle cx="10" cy="45" r="1" fill="#fff"/>
  <circle cx="23" cy="47" r="1.5" fill="#fff"/>
  <circle cx="37" cy="44" r="1" fill="#fff"/>
  <circle cx="48" cy="46" r="1.5" fill="#fff"/>
  <circle cx="48" cy="12" r="1" fill="#fff"/>
  <circle cx="3" cy="10" r="1" fill="#fff"/>
  <circle cx="45" cy="23" r="1" fill="#fff"/>
  <circle cx="26" cy="44" r="1" fill="#fff"/>
  <circle cx="5" cy="48" r="1" fill="#fff"/>
  <circle cx="38" cy="48" r="1" fill="#fff"/>
  <circle cx="14" cy="16" r="1" fill="#fff"/>
  <circle cx="33" cy="16" r="1" fill="#fff"/>
  <circle cx="22" cy="26" r="1" fill="#fff"/>
  <circle cx="12" cy="34" r="1" fill="#fff"/>
  <circle cx="46" cy="35" r="1" fill="#fff"/>
  <circle cx="3" cy="26" r="1" fill="#fff"/>
  <circle cx="35" cy="4" r=".8" fill="#fff"/>
  <circle cx="47" cy="16" r=".8" fill="#fff"/>
  <circle cx="9" cy="42" r=".8" fill="#fff"/>
  <circle cx="40" cy="10" r=".8" fill="#fff"/>
  <circle cx="20" cy="14" r=".8" fill="#fff"/>
</svg>
