<svg xmlns="http://www.w3.org/2000/svg" width="50" height="50" viewBox="0 0 50 50">
  <path fill="#fff" d="M4 8c-2 1-3 4-2 6s3 3 5 2 3-3 2-5-3-4-5-3Z"/>
  <path fill="#fff" d="M22 4c-3 0-5 2-5 5s2 5 5 5 5-2 5-5-2-5-5-5Z"/>
  <path fill="#fff" d="M42 6c-2 2-3 5-1 7s5 2 7 0 2-5 0-7-4-3-6 0Z"/>
  <path fill="#fff" d="M10 22c-2 1-4 4-3 6s3 4 6 3 3-4 2-6-3-4-5-3Z"/>
  <path fill="#fff" d="M32 20c-3 1-5 4-4 7s4 5 7 4 4-4 3-7-3-5-6-4Z"/>
  <path fill="#fff" d="M18 34c-2 2-3 5-1 7s5 3 7 1 2-5 0-7-4-3-6-1Z"/>
  <path fill="#fff" d="M38 36c-2 1-3 4-2 6s4 3 6 2 3-4 1-6-3-3-5-2Z"/>
  <path fill="#fff" d="M4 40c-1 2-1 4 1 5s4 1 5-1 1-4-1-5-4-1-5 1Z"/>
  <path fill="#fff" d="M24 42c-2 0-3 2-3 4s2 4 4 4 4-2 3-4-2-4-4-4Z"/>
  <path fill="#fff" d="M2 30c-1 1-1 3 0 4s3 1 4 0 1-3 0-4-3-1-4 0Z"/>
  <path fill="#fff" d="M46 26c-1 1-1 3 0 4s3 1 4 0 1-3 0-4-3-1-4 0Z"/>
  <path fill="#fff" d="M14 14c-1 1-2 3-1 4s3 1 4 0 1-3 0-4-2-1-3 0Z"/>
  <path fill="#fff" d="M40 14c-1 1-1 3 0 4s3 1 4 0 1-3 0-4-3-1-4 0Z"/>
</svg>
