<svg xmlns="http://www.w3.org/2000/svg" width="50" height="50" viewBox="0 0 50 50">
  <path fill="#fff" d="M0 6c3-2 7-2 10 0s5 3 8 1 4-3 7-3 4 2 7 3 5 1 8 0 4-3 7-3 4 2 7 3l3 1V4c-3-1-7-2-10-1s-5 2-8 2-4-2-7-3-5-1-8 0-4 3-7 3-5-1-8-2S4 2 0 4v2Z"/>
  <path fill="#fff" d="M0 16c3-2 7-2 10 0s5 3 8 1 4-3 7-3 4 2 7 3 5 1 8 0 4-3 7-3 4 2 7 3l3 1v-2c-3-1-7-2-10-1s-5 2-8 2-4-2-7-3-5-1-8 0-4 3-7 3-5-1-8-2S4 12 0 14v2Z"/>
  <path fill="#fff" d="M0 26c3-2 7-2 10 0s5 3 8 1 4-3 7-3 4 2 7 3 5 1 8 0 4-3 7-3 4 2 7 3l3 1v-2c-3-1-7-2-10-1s-5 2-8 2-4-2-7-3-5-1-8 0-4 3-7 3-5-1-8-2S4 22 0 24v2Z"/>
  <path fill="#fff" d="M0 36c3-2 7-2 10 0s5 3 8 1 4-3 7-3 4 2 7 3 5 1 8 0 4-3 7-3 4 2 7 3l3 1v-2c-3-1-7-2-10-1s-5 2-8 2-4-2-7-3-5-1-8 0-4 3-7 3-5-1-8-2S4 32 0 34v2Z"/>
  <path fill="#fff" d="M0 46c3-2 7-2 10 0s5 3 8 1 4-3 7-3 4 2 7 3 5 1 8 0 4-3 7-3 4 2 7 3l3 1v-2c-3-1-7-2-10-1s-5 2-8 2-4-2-7-3-5-1-8 0-4 3-7 3-5-1-8-2S4 42 0 44v2Z"/>
</svg>
