<svg xmlns="http://www.w3.org/2000/svg" width="50" height="50" viewBox="0 0 50 50">
  <path fill="#fff" d="M0 3c5-1 10 0 15 1s9 1 13-1 7-2 10-1 6 1 9 0l3-1v3c-3 1-7 2-11 2s-7-1-11 0-7 2-11 2-7-1-11-2S3 5 0 6V3Z"/>
  <path fill="#fff" d="M0 12c4-1 8 0 12 1s8 1 12-1 7-2 10-1 7 1 11 0l5-1v3c-4 1-8 2-12 2s-7-1-11 0-7 2-11 2-7-1-11-2S4 14 0 15v-3Z"/>
  <path fill="#fff" d="M0 22c5-1 10-1 15 0s8 2 12 0 8-2 12-1 7 1 11 0v3c-4 1-8 1-12 0s-8-2-12-1-7 2-11 2-7-1-11-2-4-1-4 0v-1Z"/>
  <path fill="#fff" d="M0 31c4-1 8 0 12 1s8 1 12-1 7-2 10-1 7 1 11 0l5-1v3c-4 1-8 2-12 2s-7-1-11 0-7 2-11 2-7-1-11-2S4 33 0 34v-3Z"/>
  <path fill="#fff" d="M0 41c5-1 10-1 15 0s9 2 13 0 7-2 10-1 6 1 9 0l3-1v3c-3 1-7 2-11 2s-7-1-11 0-7 2-11 2-7-1-11-2S3 43 0 44v-3Z"/>
</svg>
